<svg width="512" height="512" viewBox="0 0 512 512" fill="none" xmlns="http://www.w3.org/2000/svg">
<path d="M143.715 36.1149C144.164 36.0319 144.589 35.9678 145.043 35.9411C185.268 33.2945 224.865 46.9505 254.92 73.8341C281.7 49.238 318.175 35.9027 354.384 35.6833C394.423 35.4042 432.916 51.1414 461.306 79.3972C489.728 107.344 505.729 145.554 505.706 185.429C505.965 211.772 499.26 237.715 486.271 260.63C471.689 285.899 440.604 313.931 418.919 335.578L347.771 406.762L347.777 355.67L432.309 271.313C456.295 247.278 470.029 220.897 469.955 186.152C469.938 155.543 457.659 126.219 435.864 104.742C414.301 83.3212 385.116 71.3532 354.733 71.473C307.75 71.7119 285.168 93.6496 254.906 124.218C247.337 116.534 238.448 107.144 230.45 100.074C207.767 80.1131 178.129 69.9152 147.975 71.6964C114.053 73.8307 88.0019 88.4006 65.8495 113.551C48.9787 135.282 39.9665 158.163 39.9319 185.947C39.8132 206.797 45.4214 227.278 56.1441 245.155C66.9976 263.178 97.931 291.788 114.051 307.885L198.675 392.472C199.43 333.548 198.68 272.94 198.673 213.875L124.83 213.857L124.809 178.101L234.5 178.114L234.62 478.946C221.779 466.884 207.862 452.231 195.207 439.582L117.265 361.761L69.8043 314.401C55.7345 300.348 40.5121 286.442 29.4283 269.961C15.4125 249.159 6.87212 225.153 4.59865 200.169C0.937911 160.335 13.2392 120.678 38.7965 89.9207C65.9171 57.3554 101.921 39.9599 143.715 36.1149Z" fill="#DDAA2A"/>
<path d="M276.982 249.285L422.87 249.329C414.584 257.718 394.465 279.186 386.41 285.549L312.683 285.546L312.687 367.001L312.722 441.662C300.703 453.577 288.763 465.572 276.904 477.646L276.982 249.285Z" fill="#DDAA2A"/>
<path d="M275.677 178.105L447.706 178.119C447.934 193.049 447.755 198.054 444.233 212.359L443.297 213.41C436.998 214.494 401.333 213.917 393.072 213.913L275.627 213.864L275.677 178.105Z" fill="#DDAA2A"/>
</svg>
