<svg width="300" height="73" viewBox="0 0 300 73" fill="none" xmlns="http://www.w3.org/2000/svg">
<mask id="mask0_569_379" style="mask-type:luminance" maskUnits="userSpaceOnUse" x="0" y="0" width="300" height="73">
<path d="M299.991 0H0V73.0018H299.991V0Z" fill="white"/>
</mask>
<g mask="url(#mask0_569_379)">
<path d="M26.3214 1.9665C26.3898 1.95385 26.4546 1.94407 26.5239 1.94C32.6553 1.53659 38.691 3.61814 43.2722 7.71596C47.3542 3.96682 52.914 1.93415 58.4333 1.9007C64.5364 1.85816 70.4037 4.25696 74.7311 8.56393C79.0636 12.8239 81.5025 18.6481 81.499 24.7262C81.5384 28.7416 80.5164 32.6961 78.5365 36.1889C76.3139 40.0406 71.5756 44.3135 68.2702 47.6131L57.4253 58.4636L57.4262 50.6756L70.3113 37.8174C73.9674 34.1537 76.0608 30.1324 76.0495 24.8364C76.047 20.1707 74.1752 15.7009 70.8531 12.4272C67.5663 9.16207 63.1177 7.3378 58.4865 7.35607C51.325 7.39248 47.8827 10.7364 43.27 15.396C42.1162 14.2246 40.7614 12.7933 39.5422 11.7157C36.0848 8.67306 31.567 7.11861 26.9708 7.39012C21.8 7.71545 17.8291 9.9363 14.4525 13.77C11.8809 17.0823 10.5072 20.57 10.5019 24.8052C10.4838 27.9832 11.3387 31.1052 12.9731 33.8301C14.6275 36.5772 19.3426 40.9383 21.7998 43.3919L34.6989 56.2853C34.8139 47.3037 34.6996 38.0652 34.6986 29.0621L23.4427 29.0594L23.4396 23.6092L40.1595 23.6111L40.1778 69.4664C38.2205 67.6279 36.0993 65.3944 34.1702 63.4662L22.2897 51.6041L15.0553 44.3852C12.9107 42.2431 10.5904 40.1233 8.90087 37.6113C6.76448 34.4405 5.46268 30.7812 5.11614 26.9729C4.55814 20.9012 6.4332 14.8562 10.3289 10.168C14.4628 5.20414 19.9508 2.55258 26.3214 1.9665Z" fill="#DDAA2A"/>
<path d="M46.6349 34.4609L68.8723 34.4677C67.6093 35.7463 64.5426 39.0186 63.3148 39.9886L52.0768 39.9881L52.0774 52.4041L52.0827 63.7846C50.2506 65.6007 48.4307 67.4291 46.623 69.2696L46.6349 34.4609Z" fill="#DDAA2A"/>
<path d="M115.756 40.7896C119.889 40.2723 123.004 43.2121 123.429 47.1763C123.939 51.9462 122.898 56.0376 117.735 57.3374C115.891 57.4957 114.285 57.2909 112.735 56.2232C108.317 53.1788 108.531 43.5229 113.741 41.3189C114.421 41.0312 115.044 40.9064 115.756 40.7896ZM116.401 43.4253C112.912 43.9558 112.798 48.0979 113.161 50.9058C113.459 53.215 114.583 54.6004 116.961 54.7281C120.588 53.7657 120.446 49.3826 119.87 46.3521C119.538 44.6079 118.208 43.4516 116.401 43.4253Z" fill="black"/>
<path d="M46.4354 23.6094L72.6574 23.6114C72.6922 25.8872 72.6648 26.6502 72.128 28.8306L71.9853 28.9909C71.0252 29.1561 65.5889 29.0681 64.3296 29.0675L46.4277 29.06L46.4354 23.6094Z" fill="#DDAA2A"/>
<path d="M154.707 13.9355V31.04L151.82 31.0391L151.654 30.252C151.14 30.0626 150.208 31.0435 149.343 31.1738C148.456 31.3069 148.071 31.2349 147.218 31.1113C140.697 28.5425 144.241 14.455 151.455 19.9424L151.461 13.9336L154.707 13.9355ZM148.967 21.2646C148.12 21.6777 147.591 22.1303 147.343 23.0635C146.756 25.2741 146.722 28.4236 149.556 28.7471C151.699 28.2027 151.525 26.8646 151.593 24.9014C151.658 23.0013 151.263 21.182 148.967 21.2646Z" fill="black"/>
<path d="M244.552 40.0801L244.554 57.1406C243.846 57.1554 242.516 57.2174 241.794 57.1289C241.592 57.1038 241.58 56.6172 241.419 56.2334C240.45 56.1318 240.39 57.9155 237.037 57.2119C230.53 54.7166 234.109 40.5907 241.272 46.0498L241.288 40.0742L244.552 40.0801ZM241.412 50.8145C241.462 48.65 240.886 47.1959 238.453 47.5166C236.248 49.1094 235.928 54.9509 239.792 54.8174C241.62 53.969 241.368 52.654 241.412 50.8145Z" fill="black"/>
<path d="M188.076 14.8255L191.429 14.8242L191.427 21.3952L197.892 21.3977L197.895 14.8267L201.259 14.8245C201.261 20.0157 201.381 25.7012 201.234 30.8515L200.959 31.0351L197.892 31.0373L197.893 24.0424L191.427 24.0408V31.0374L188.062 31.0384L188.076 14.8255Z" fill="black"/>
<path d="M115.263 14.6769C119.599 14.2978 122.216 15.4414 123.069 19.9792L119.884 19.9882C119.707 19.4707 119.259 18.2687 118.883 18.0195C114.909 15.3862 113.021 19.5578 113.171 22.8085C113.115 25.8854 113.966 28.7778 117.597 28.7099C119.978 28.6655 119.728 26.611 119.684 24.9449C118.713 24.9104 117.594 25.1839 116.841 24.7901C116.484 24.2574 116.608 24.2364 116.604 23.4758C116.596 23.1093 116.609 23.0334 116.703 22.6776C117.438 22.4306 122.05 22.5578 123.051 22.5684L123.053 29.0012C122.139 29.9134 121.002 30.57 119.755 30.9059C110.875 33.3538 107.712 24.565 110.905 17.735C111.698 16.0391 113.521 15.1346 115.263 14.6769Z" fill="black"/>
<path d="M200.619 44.8994C201.819 44.8238 203.134 45.0858 204.159 45.7109C207.965 48.033 207.672 55.3934 203.318 56.9961C202.868 57.1616 202.325 57.2772 201.854 57.3779C195.777 57.8657 193.68 51.4683 196.595 46.9433C197.464 45.5966 199.09 45.0967 200.619 44.8994ZM201.91 54.747C204.488 53.0639 204.346 46.9147 200.223 47.5185C197.61 49.1935 197.814 55.6059 201.91 54.747Z" fill="black"/>
<path d="M277.666 44.8985C283.615 44.8797 285.333 50.7343 282.564 55.3106C281.757 56.6424 279.998 57.2017 278.497 57.4063C277.044 57.3952 275.821 57.2075 274.624 56.3165C271.286 53.8284 271.606 47.0522 275.63 45.3663C276.339 45.0695 276.918 44.9916 277.666 44.8985ZM278.864 54.7901C281.453 53.2031 281.516 47.0303 277.279 47.5108C274.723 49.0851 274.688 55.3481 278.864 54.7901Z" fill="black"/>
<path d="M129.751 18.7884C133.562 18.5901 136.039 20.3624 136.398 24.2903C136.712 27.73 135.165 30.574 131.612 31.2073C128.381 31.361 125.85 30.1968 125.152 26.8079C124.37 23.0043 125.762 19.6675 129.751 18.7884ZM130.213 21.2659C127.183 22.65 127.364 28.8261 131.1 28.7366C134.166 27.6872 134.082 21.219 130.213 21.2659Z" fill="black"/>
<path d="M219.952 18.8079C228.706 18.1307 224.827 25.7393 226.438 31.0286C225.653 31.0269 223.841 31.1583 223.177 30.9886C223.028 30.7038 222.941 30.5041 222.822 30.2054C221.197 30.173 220.046 33.0669 216.459 29.8763C215.595 28.6326 215.148 26.5933 216.336 25.3938C218.036 23.6748 220.252 23.7317 222.471 23.6536C222.761 23.2892 222.593 23.3561 222.658 22.97C222.91 21.474 220.653 20.0865 219.763 21.6477C219.629 21.8837 219.23 22.29 219.025 22.4925C218.416 22.553 216.57 22.7024 216.084 22.4505C215.259 20.6342 218.578 19.1337 219.952 18.8079ZM220.57 25.5481C218.244 26.4825 218.326 28.8031 220.845 28.847C222.95 28.2021 222.728 27.5019 222.676 25.5198L220.57 25.5481Z" fill="black"/>
<path d="M251.451 44.9029C259.081 44.2539 255.868 52.5996 257.236 57.1383C256.415 57.1537 255.584 57.1658 254.764 57.1744C253.822 57.1842 253.981 57.1626 253.628 56.3356C252.919 56.3478 251.637 57.6076 250.221 57.4625C248.885 57.3256 247.998 56.7546 247.1 55.7858C246.877 55.4174 246.696 54.9929 246.591 54.5807C245.513 50.3695 249.95 49.8786 252.971 49.8014C253.258 49.794 253.3 49.723 253.442 49.5074C253.574 46.7414 251.11 46.5715 249.874 48.402C249.496 48.9621 247.286 48.7043 246.61 48.6676C247.461 45.9115 248.676 45.2524 251.451 44.9029ZM253.298 51.8512C252.829 51.5567 252.762 51.6623 252.11 51.6637C249.737 51.8834 248.577 53.9035 250.962 55.0065C252.699 54.9051 254.396 53.542 253.298 51.8512Z" fill="black"/>
<path d="M162.321 18.7664C166.919 18.7056 167.693 22.3621 167.701 26.0408C165.092 26.0222 162.481 26.0265 159.873 26.0535C161.077 29.3077 163.205 29.421 165.832 27.4802L166.122 27.6502L167.437 29.1004C165.38 31.3498 162.181 32.0871 159.503 30.4675C158.187 29.6669 157.247 28.3705 156.892 26.8699C155.997 23.2209 157.49 19.7282 161.377 18.7986C161.691 18.7821 162.006 18.7715 162.321 18.7664ZM161.846 21.2664C160.639 21.8931 160.477 22.2204 160.056 23.5427C160.027 23.6368 159.998 23.7315 159.968 23.8259L162.561 23.8328C163.124 23.8612 163.827 23.9767 164.254 23.6375C164.569 23.1381 164.521 23.3466 164.506 22.7937C163.991 21.683 163.018 21.2362 161.846 21.2664Z" fill="black"/>
<path d="M209.32 18.7656C213.717 18.7995 214.461 22.5215 214.432 26.043C213.405 26.0366 207.388 25.9092 206.902 26.1777C206.84 26.5471 207.036 27.0956 207.224 27.4111C208.58 29.6946 210.99 28.4833 212.624 27.5137L212.943 27.7373L214.171 29.0977C212.141 31.3409 209.016 32.0879 206.334 30.5107C205.007 29.7366 204.048 28.4602 203.671 26.9697C202.718 23.2867 204.195 19.804 208.097 18.8018C208.504 18.7788 208.911 18.7664 209.32 18.7656ZM208.571 21.2744C207.49 21.861 207.236 22.1576 206.878 23.3721C206.831 23.528 206.789 23.6847 206.746 23.8418L209.397 23.834C210.117 23.8418 210.416 23.9571 211.002 23.6396C211.779 22.1252 209.9 21.2336 208.571 21.2744Z" fill="black"/>
<path d="M170.738 44.8869C175.393 44.8618 176.185 48.3 176.204 52.1398C173.597 52.1285 170.988 52.1383 168.379 52.1691C168.76 53.1818 169.012 53.8524 169.955 54.4953C171.745 55.7148 173.528 53.8569 174.468 53.673L174.895 54.0861L175.953 55.2316C171.805 59.5777 165.149 57.196 165.196 51.1535C165.224 47.5787 166.867 45.3936 170.446 44.8986C170.542 44.8914 170.639 44.8873 170.738 44.8869ZM170.055 47.5089C168.971 48.2356 168.842 48.7039 168.489 49.9728L171.863 49.9757C172.498 49.9573 172.513 50.0648 172.912 49.7257C173.513 48.2568 171.47 47.3028 170.055 47.5089Z" fill="black"/>
<path d="M183.826 40.9844L194.406 40.9869V43.604L187.193 43.6001V47.8798L193.614 47.8883L193.627 50.022C193.64 50.1602 193.56 50.2837 193.497 50.4125C192.837 50.6308 188.112 50.518 187.193 50.5078L187.198 57.1408L183.824 57.1427L183.826 40.9844Z" fill="black"/>
<path d="M227.646 44.8916C227.721 44.8881 227.796 44.8865 227.871 44.8868C233.274 44.8832 231.832 53.2221 231.82 57.1445L228.54 57.1461C228.541 56.8442 228.59 56.0965 228.547 55.8501C228.155 53.5884 230.17 45.2221 225.118 47.9331C224.975 48.0966 224.693 48.4627 224.679 48.6641C224.487 51.27 224.592 54.5442 224.608 57.1427L221.371 57.1456L221.377 45.1228C222.118 45.1466 222.71 45.0536 223.429 45.0437C224.34 45.0313 224.33 45.8186 224.679 46.1761C225.936 45.3926 226.177 45.1134 227.646 44.8916Z" fill="black"/>
<path d="M291.958 44.8883C292.028 44.8843 292.098 44.8825 292.17 44.8828C296.042 44.9086 296.176 48.1202 296.103 51.1066C296.056 53.0909 296.081 55.1502 296.074 57.1404L292.817 57.1427C292.807 54.5244 294.222 44.9438 289.337 48.0032C289.264 48.0903 289.201 48.1796 289.138 48.2744C288.572 49.1204 288.871 55.6295 288.88 57.1404L285.648 57.1436V45.1199C286.621 45.0974 287.531 45.0648 288.502 45.1304C288.919 45.4591 288.512 45.7559 288.851 46.1933C289.731 46.0237 289.771 45.2012 291.958 44.8883Z" fill="black"/>
<path d="M175.084 18.7988C175.404 18.7776 175.725 18.7651 176.045 18.7618C177.792 18.754 179.445 19.9396 179.631 21.6464C179.954 24.6034 179.782 28.0473 179.772 31.0395L176.541 31.0422C176.536 28.9944 176.598 26.9565 176.596 24.8977C176.595 23.7441 176.675 21.9565 175.377 21.3902C174.695 21.0925 173.907 21.4106 173.272 21.6949L173.239 21.7279C173.054 21.9138 172.717 22.2829 172.695 22.529C172.457 25.2494 172.585 28.3116 172.602 31.0397L169.373 31.0381L169.379 18.9555C170.047 18.9491 171.852 18.8793 172.37 19.0551C172.423 19.4714 172.438 19.7326 172.605 20.1268C173.586 19.4866 173.943 19.1492 175.084 18.7988Z" fill="black"/>
<path d="M208.609 45.1286L211.841 45.1255C211.857 47.0426 211.275 53.123 212.482 54.3937C212.777 54.7032 213.166 54.8602 213.591 54.8631C214.193 54.8675 214.93 54.6148 215.362 54.1875C216.166 53.3937 215.79 46.6909 215.785 45.1211L219.011 45.1234L219.012 48.741L219.015 57.1428C218.334 57.1651 217.272 57.2347 216.628 57.0934C215.774 56.9063 216.042 56.6145 215.806 56.2466C214.357 56.7584 214.6 57.3306 212.687 57.416C207.216 57.6602 208.584 49.2179 208.609 45.1286Z" fill="black"/>
<path d="M248.552 18.7923C250.67 18.6988 253.497 18.9823 254.348 21.3954C254.505 21.8375 254.621 22.2321 254.404 22.6366C253.768 22.6832 251.435 22.8372 251.21 22.2395C250.138 19.3322 246.359 21.9602 248.418 23.2376C249.984 24.2086 254.209 24.125 254.584 26.8156C254.972 29.6098 252.937 30.789 250.496 31.2186C247.128 31.358 245.096 30.655 244.213 27.2079C244.979 27.1931 247.377 27.0924 247.525 27.7013C247.957 29.4814 251.358 29.4055 251.505 27.683C251.017 26.1998 247.622 26.0973 246.3 25.1085C242.969 22.6158 245.035 19.5641 248.552 18.7923Z" fill="black"/>
<path d="M139.638 40.995L143.004 40.9922L143.006 54.5344L150.12 54.5372L150.124 57.1407L139.637 57.1451L139.638 40.995Z" fill="black"/>
<path d="M162.163 39.891C163.187 39.8444 163.838 39.6539 164.561 40.292C164.845 40.8561 164.741 41.7998 164.722 42.4602C164.512 42.4417 164.301 42.4275 164.09 42.4174C161.974 42.324 161.886 43.3895 161.908 45.1178L164.326 45.1204L164.325 47.444L161.909 47.4425V56.9876C161.634 57.2527 159.183 57.1468 158.647 57.1417L158.648 47.4575L156.885 47.4359V45.1216L158.637 45.1141C158.645 42.1358 159.029 40.6188 162.163 39.891Z" fill="black"/>
<path d="M129.878 39.9091C130.992 39.8506 131.674 39.6214 132.44 40.2952C132.726 40.8564 132.618 41.7907 132.596 42.4493C131.131 42.3511 129.158 42.8802 129.655 44.7386C130.262 45.3122 131.25 45.1307 132.173 45.1235L132.179 47.446L129.783 47.444L129.785 56.9816C129.527 57.2569 127.054 57.1484 126.536 57.1439L126.534 47.4539L124.756 47.4361L124.759 45.1298L126.527 45.1178C126.512 42.2314 126.869 40.7055 129.878 39.9091Z" fill="black"/>
<path d="M259.865 42.1445L263.021 42.15L263.025 45.1166L265.121 45.123L265.123 47.4471L263.021 47.4454C263.022 49.3944 262.968 51.3482 263.037 53.2942C263.098 55.0292 263.91 54.8565 265.263 54.7181L265.265 57.1006C258.346 59.1418 259.754 51.7703 259.779 47.4622L258.061 47.4372L258.066 45.1337L259.777 45.1056C259.771 44.4355 259.71 42.7005 259.865 42.1445Z" fill="black"/>
<path d="M237.905 16.0273L241.113 16.0382L241.114 18.9531L243.18 18.9554V21.2867L241.113 21.2836C241.101 22.5839 240.826 27.818 241.558 28.4979C242.043 28.7336 242.756 28.6379 243.31 28.6087L243.323 31.0209C236.244 32.2634 237.864 26.3718 237.889 21.3043L236.144 21.2817L236.143 18.9644L237.886 18.9449L237.905 16.0273Z" fill="black"/>
<path d="M138.534 13.9336L141.756 13.9351L141.754 31.0377L138.529 31.0412L138.534 13.9336Z" fill="black"/>
<path d="M233.483 18.7811C234.221 18.7371 234.518 18.6675 235.082 19.0543C235.437 19.75 235.23 21.02 235.182 21.8758C231.927 21.6455 231.366 22.6581 231.524 25.8332C231.608 27.4944 231.59 29.3599 231.59 31.0363L228.679 31.0339L228.593 31.0094C228.543 30.9531 228.483 30.8848 228.413 30.8049C228.319 27.6086 228.367 21.8909 228.372 18.9505C229.046 18.9292 230.036 18.8668 230.691 18.9358C231.807 19.0537 231.2 19.6538 231.571 20.1625C232.479 19.4301 232.32 19.2831 233.483 18.7811Z" fill="black"/>
<path d="M94.9733 1.79298C95.2847 1.85516 95.3655 1.86152 95.6107 2.05751C95.7211 3.24127 95.6526 5.52426 95.6517 6.76322L95.648 15.6733L95.6469 44.1435L95.6558 61.986C95.6565 63.2966 95.7432 68.653 95.5279 69.5631C95.233 69.4812 95.2008 69.4561 94.9697 69.2543C94.8096 68.0282 94.918 62.8109 94.918 61.3763L94.9218 43.9259L94.9229 16.1579C94.9223 12.0426 94.7331 5.77721 94.9733 1.79298Z" fill="#ABAAAB"/>
<path d="M151.942 45.1211L155.176 45.1245V57.1444L151.938 57.1441L151.942 45.1211Z" fill="black"/>
<path d="M267.049 45.124L270.276 45.1211L270.274 57.139L267.049 57.1441V45.124Z" fill="black"/>
<path d="M153.174 40.3477C155.723 40.5033 156.315 42.6637 153.98 43.6552C151.561 43.7332 150.731 41.2628 153.174 40.3477Z" fill="black"/>
<path d="M268.33 40.3438C268.654 40.3415 269.251 40.4167 269.538 40.5602C269.96 40.7721 270.278 41.1456 270.422 41.5959C270.779 42.7324 269.883 43.3843 268.919 43.6682C268.016 43.636 267.227 43.3842 266.906 42.4548C266.776 42.0828 266.802 41.6744 266.978 41.3217C267.278 40.7113 267.723 40.544 268.33 40.3438Z" fill="black"/>
</g>
</svg>
